<svg id="Layer_1" data-name="Layer 1" xmlns="http://www.w3.org/2000/svg" viewBox="0 0 375.42 409.03"><defs><style>.cls-1{fill:#fff;stroke:#000;stroke-miterlimit:10;}.cls-2{font-size:12px;font-family:MyriadPro-Regular, Myriad Pro;}</style></defs><title>testMap2v2</title><polygon class="cls-1" points="88.59 181.47 80.59 117.47 111.59 80.47 141.59 57.47 213.59 57.47 213.59 105.47 189.59 156.47 88.59 181.47"/><text class="cls-2" transform="translate(140.74 116.06)">T1</text><polygon class="cls-1" points="213.59 57.47 294.9 0.59 374.75 46.04 310.26 164.58 274.09 204.47 213.59 105.47 213.59 57.47"/><text class="cls-2" transform="translate(288.15 82.28)">T2</text><polygon class="cls-1" points="88.59 181.47 0.59 253.47 56.59 408.47 116.59 397.47 157.09 316.47 124.59 210.47 189.59 156.47 88.59 181.47"/><text class="cls-2" transform="translate(62.74 291.71)">T3</text><polygon class="cls-1" points="189.59 156.47 124.59 210.47 157.09 316.47 281.59 300.47 274.09 204.47 213.59 105.47 189.59 156.47"/><text class="cls-2" transform="translate(200.93 236.44)">T4</text></svg>